<mxfile host="65bd71144e">
    <diagram id="u2-esAWX8M7a_BIwoZv7" name="Page-1">
        <mxGraphModel dx="490" dy="632" grid="0" gridSize="10" guides="1" tooltips="1" connect="1" arrows="1" fold="1" page="0" pageScale="1" pageWidth="850" pageHeight="1100" math="0" shadow="0">
            <root>
                <mxCell id="0"/>
                <mxCell id="1" parent="0"/>
                <mxCell id="23" style="edgeStyle=orthogonalEdgeStyle;html=1;exitX=0.5;exitY=1;exitDx=0;exitDy=0;entryX=0.5;entryY=0;entryDx=0;entryDy=0;" edge="1" parent="1" source="2" target="8">
                    <mxGeometry relative="1" as="geometry">
                        <mxPoint x="539.5" y="133" as="targetPoint"/>
                    </mxGeometry>
                </mxCell>
                <mxCell id="2" value="Durante&lt;br style=&quot;font-size: 10px;&quot;&gt;TIEMPO_CALIDAD_ESPERADO&lt;br style=&quot;font-size: 10px;&quot;&gt;observar el sistema" style="rounded=1;whiteSpace=wrap;html=1;fillColor=#f8cecc;strokeColor=#b85450;fontSize=10;" parent="1" vertex="1">
                    <mxGeometry x="443" y="20" width="193" height="60" as="geometry"/>
                </mxCell>
                <mxCell id="11" style="edgeStyle=none;html=1;exitX=0.5;exitY=1;exitDx=0;exitDy=0;entryX=0.5;entryY=0;entryDx=0;entryDy=0;" parent="1" source="8" target="10" edge="1">
                    <mxGeometry relative="1" as="geometry"/>
                </mxCell>
                <mxCell id="8" value="&lt;span style=&quot;font-size: 10px;&quot;&gt;PENDIENTE_LANZAR&lt;br style=&quot;font-size: 10px;&quot;&gt;=&lt;br style=&quot;font-size: 10px;&quot;&gt;Observation.avgRateOfArrival&lt;/span&gt;&lt;br style=&quot;font-size: 10px;&quot;&gt;&lt;span style=&quot;font-size: 10px;&quot;&gt;-&lt;/span&gt;&lt;br style=&quot;font-size: 10px;&quot;&gt;&lt;span style=&quot;font-size: 10px;&quot;&gt;&amp;nbsp;Observation.avgRateOfService&lt;br style=&quot;font-size: 10px;&quot;&gt;&lt;/span&gt;" style="rounded=1;whiteSpace=wrap;html=1;fontSize=10;" parent="1" vertex="1">
                    <mxGeometry x="435" y="123" width="209" height="87" as="geometry"/>
                </mxCell>
                <mxCell id="17" value="true" style="edgeStyle=orthogonalEdgeStyle;html=1;exitX=0.5;exitY=1;exitDx=0;exitDy=0;" parent="1" source="10" target="16" edge="1">
                    <mxGeometry relative="1" as="geometry"/>
                </mxCell>
                <mxCell id="27" style="edgeStyle=orthogonalEdgeStyle;html=1;exitX=1;exitY=0.5;exitDx=0;exitDy=0;entryX=0.5;entryY=0;entryDx=0;entryDy=0;" edge="1" parent="1" source="10" target="33">
                    <mxGeometry relative="1" as="geometry">
                        <Array as="points">
                            <mxPoint x="634" y="304"/>
                            <mxPoint x="634" y="483"/>
                            <mxPoint x="540" y="483"/>
                        </Array>
                    </mxGeometry>
                </mxCell>
                <mxCell id="28" value="false" style="edgeLabel;html=1;align=center;verticalAlign=middle;resizable=0;points=[];" vertex="1" connectable="0" parent="27">
                    <mxGeometry x="-0.3391" relative="1" as="geometry">
                        <mxPoint y="-24" as="offset"/>
                    </mxGeometry>
                </mxCell>
                <mxCell id="10" value="PENDIENTE_LANZAR &lt;br style=&quot;font-size: 10px;&quot;&gt;&amp;gt;&lt;br style=&quot;font-size: 10px;&quot;&gt;NUM_WORKERS" style="rhombus;whiteSpace=wrap;html=1;fontSize=10;" parent="1" vertex="1">
                    <mxGeometry x="455.5" y="263" width="168" height="81" as="geometry"/>
                </mxCell>
                <mxCell id="35" style="edgeStyle=orthogonalEdgeStyle;html=1;exitX=0.5;exitY=1;exitDx=0;exitDy=0;entryX=0.5;entryY=0;entryDx=0;entryDy=0;" edge="1" parent="1" source="16" target="33">
                    <mxGeometry relative="1" as="geometry"/>
                </mxCell>
                <mxCell id="16" value="Aumentar PENDIENTE_LANZAR instancias de Workers" style="rounded=1;whiteSpace=wrap;html=1;fontSize=10;" parent="1" vertex="1">
                    <mxGeometry x="468" y="397" width="143" height="60" as="geometry"/>
                </mxCell>
                <mxCell id="41" style="edgeStyle=orthogonalEdgeStyle;html=1;exitX=0.5;exitY=0;exitDx=0;exitDy=0;entryX=1;entryY=0.5;entryDx=0;entryDy=0;fontSize=10;" edge="1" parent="1" source="25" target="2">
                    <mxGeometry relative="1" as="geometry"/>
                </mxCell>
                <mxCell id="25" value="&lt;span style=&quot;font-size: 10px;&quot;&gt;Quitar&amp;nbsp;&lt;br style=&quot;font-size: 10px;&quot;&gt;&lt;/span&gt;NUM_WORKERS&lt;br style=&quot;font-size: 10px;&quot;&gt;&lt;span style=&quot;font-size: 10px;&quot;&gt;-&lt;br style=&quot;font-size: 10px;&quot;&gt;&lt;/span&gt;PENDIENTE_LANZAR&lt;br style=&quot;font-size: 10px;&quot;&gt;&lt;span style=&quot;font-size: 10px;&quot;&gt;workers&lt;br style=&quot;font-size: 10px;&quot;&gt;&lt;/span&gt;" style="rounded=1;whiteSpace=wrap;html=1;fontSize=10;" vertex="1" parent="1">
                    <mxGeometry x="675" y="510.5" width="165" height="80" as="geometry"/>
                </mxCell>
                <mxCell id="36" style="edgeStyle=orthogonalEdgeStyle;html=1;exitX=0;exitY=0.5;exitDx=0;exitDy=0;entryX=0;entryY=0.5;entryDx=0;entryDy=0;" edge="1" parent="1" source="33" target="2">
                    <mxGeometry relative="1" as="geometry">
                        <Array as="points">
                            <mxPoint x="411" y="551"/>
                            <mxPoint x="411" y="50"/>
                        </Array>
                    </mxGeometry>
                </mxCell>
                <mxCell id="37" value="false" style="edgeLabel;html=1;align=center;verticalAlign=middle;resizable=0;points=[];" vertex="1" connectable="0" parent="36">
                    <mxGeometry x="-0.9472" relative="1" as="geometry">
                        <mxPoint as="offset"/>
                    </mxGeometry>
                </mxCell>
                <mxCell id="38" style="edgeStyle=orthogonalEdgeStyle;html=1;exitX=1;exitY=0.5;exitDx=0;exitDy=0;entryX=0;entryY=0.5;entryDx=0;entryDy=0;" edge="1" parent="1" source="33" target="25">
                    <mxGeometry relative="1" as="geometry"/>
                </mxCell>
                <mxCell id="40" value="true" style="edgeLabel;html=1;align=center;verticalAlign=middle;resizable=0;points=[];" vertex="1" connectable="0" parent="38">
                    <mxGeometry x="-0.2517" relative="1" as="geometry">
                        <mxPoint as="offset"/>
                    </mxGeometry>
                </mxCell>
                <mxCell id="33" value="NUM_WORKERS &amp;gt; 1 &amp;amp;&amp;amp; (NUM_WORKERS -PENDIENTE_LANZAR) &amp;gt; 0" style="rhombus;whiteSpace=wrap;html=1;fontSize=10;" vertex="1" parent="1">
                    <mxGeometry x="448.25" y="501.5" width="182.5" height="98" as="geometry"/>
                </mxCell>
            </root>
        </mxGraphModel>
    </diagram>
</mxfile>